# xmcd
#
# Track frame offsets: 
#        150
#        31487
#        55036
#        82031
#        104208
#        127752
#        146766
#        166683
#        183714
#        203501
#        220425
#        236810
#        262421
#        278466
#        299588
#        318146
#
# Disc length: 4560 seconds
#
# Revision: 0
# Processed by: cddbd v1.5.2PL0 Copyright (c) Steve Scherf et al.
# Submitted via: ExactAudioCopyFreeDBPlugin 1.0
#
DISCID=f711ce10
DTITLE=ZABADAK - GOLEDEN BEST
DYEAR=1900
DGENRE=Pop
TTITLE0=harvest rain（豊穣の雨）
TTITLE1=マーブルスカイ
TTITLE2=百年の満月
TTITLE3=二月の丘
TTITLE4=愛は静かな場所へ降りてくる
TTITLE5=夜毎、神話がたどりつくところ
TTITLE6=同じ海の色
TTITLE7=砂煙りのまち
TTITLE8=Tears
TTITLE9=双子の星
TTITLE10=光の庭で
TTITLE11=Mother
TTITLE12=Riddle Linda
TTITLE13=Fake
TTITLE14=点灯夫
TTITLE15=観覧車
EXTD=
EXTT0=
EXTT1=
EXTT2=
EXTT3=
EXTT4=
EXTT5=
EXTT6=
EXTT7=
EXTT8=
EXTT9=
EXTT10=
EXTT11=
EXTT12=
EXTT13=
EXTT14=
EXTT15=
PLAYORDER=
